<?xml version="1.0" encoding="UTF-8" standalone="no"?>
<!-- Created with Inkscape (http://www.inkscape.org/) -->

<svg
   width="568.70435mm"
   height="573.01868mm"
   viewBox="0 0 568.70435 573.01868"
   version="1.1"
   id="svg1"
   xml:space="preserve"
   inkscape:version="1.4.2 (f4327f4, 2025-05-13)"
   sodipodi:docname="logo3.svg"
   xmlns:inkscape="http://www.inkscape.org/namespaces/inkscape"
   xmlns:sodipodi="http://sodipodi.sourceforge.net/DTD/sodipodi-0.dtd"
   xmlns="http://www.w3.org/2000/svg"
   xmlns:svg="http://www.w3.org/2000/svg"><sodipodi:namedview
     id="namedview1"
     pagecolor="#505050"
     bordercolor="#eeeeee"
     borderopacity="1"
     inkscape:showpageshadow="0"
     inkscape:pageopacity="0"
     inkscape:pagecheckerboard="0"
     inkscape:deskcolor="#505050"
     inkscape:document-units="px"
     inkscape:zoom="0.25"
     inkscape:cx="1028"
     inkscape:cy="800"
     inkscape:window-width="1278"
     inkscape:window-height="1360"
     inkscape:window-x="1266"
     inkscape:window-y="0"
     inkscape:window-maximized="0"
     inkscape:current-layer="layer1" /><defs
     id="defs1" /><g
     inkscape:label="Capa 1"
     inkscape:groupmode="layer"
     id="layer1"
     transform="translate(-102.53997,-100.15234)"><path
       style="fill:#f5f5f7;fill-opacity:1"
       d="m 152.88258,662.88898 c -5.51905,-0.44536 -11.54778,-1.76792 -16.89283,-3.70589 -7.54419,-2.73531 -16.38021,-9.30199 -21.76429,-16.17461 -4.0385,-5.15502 -8.39611,-14.07102 -10.16589,-20.80019 -2.1182,-8.05396 -2.0062,-29.43249 0.23739,-45.31177 1.55239,-10.98727 2.48116,-18.54636 3.31207,-26.95645 0.246,-2.48987 0.62383,-5.63822 0.83962,-6.99633 0.5625,-3.54016 1.81206,-14.38084 2.89369,-25.10448 0.22831,-2.26352 0.69216,-5.59707 1.03078,-7.40788 0.33862,-1.81082 0.8922,-5.79255 1.23019,-8.8483 0.33799,-3.05575 0.77877,-6.85229 0.97953,-8.43675 0.20075,-1.58447 0.57751,-4.73281 0.83723,-6.99633 0.25972,-2.26352 0.74189,-5.78226 1.07149,-7.81943 0.32961,-2.03717 0.87487,-6.66709 1.21169,-10.28872 0.33683,-3.62163 0.79067,-7.88116 1.00853,-9.46563 1.31133,-9.53681 1.74494,-12.85996 2.25539,-17.28505 0.31332,-2.71622 0.69295,-6.32756 0.84361,-8.0252 0.15066,-1.69764 0.5418,-4.66079 0.86919,-6.58478 0.3274,-1.92399 0.85827,-5.81313 1.17971,-8.64253 0.32145,-2.82939 0.85808,-7.27412 1.19253,-9.87717 0.33445,-2.60304 0.72886,-5.93659 0.87648,-7.40788 0.14761,-1.47128 0.6095,-4.71223 1.0264,-7.2021 0.41691,-2.48987 0.88252,-5.91602 1.03468,-7.61366 0.15216,-1.69763 0.54078,-4.93858 0.8636,-7.2021 0.94146,-6.60125 2.82726,-22.63184 3.24373,-27.57377 0.1526,-1.81082 0.548,-5.14436 0.87868,-7.40788 1.83774,-12.57955 2.35758,-16.59207 3.06578,-23.66406 0.23801,-2.37669 0.77644,-6.35843 1.19651,-8.8483 0.42007,-2.48987 0.87897,-5.91601 1.01978,-7.61365 0.49763,-5.99966 2.48165,-23.35464 3.10518,-27.16223 0.20387,-1.24493 0.65617,-4.76367 1.00512,-7.81942 1.19066,-10.42682 1.67386,-14.25874 3.07369,-24.37519 0.44702,-3.23051 0.92589,-7.81822 1.06416,-10.19492 0.13827,-2.37669 0.60003,-6.82142 1.02613,-9.87717 0.4261,-3.05575 0.87417,-6.48189 0.99572,-7.61365 0.12155,-1.13176 0.5892,-5.1135 1.03923,-8.8483 0.45002,-3.73481 1.00196,-8.36473 1.22653,-10.28872 0.22457,-1.92399 0.77193,-6.09093 1.21635,-9.25985 0.44442,-3.16893 1.20749,-9.18783 1.69572,-13.37534 0.48822,-4.18751 1.25901,-10.20641 1.71287,-13.37534 0.45386,-3.16892 0.98992,-7.33585 1.19126,-9.25984 1.02249,-9.77099 3.64072,-18.30345 7.36546,-24.00307 3.80137,-5.81687 11.77691,-12.08947 18.12728,-14.25675 6.5965,-2.25128 8.53095,-2.45523 28.23125,-2.97654 23.31328,-0.61692 65.75664,0.042 70.02223,1.08708 3.55631,0.8713 6.86712,2.82476 9.77809,5.76931 4.56228,4.61492 6.65353,10.46651 6.25531,17.5032 -0.33323,5.88818 -1.48489,18.17383 -1.94853,20.78648 -0.24101,1.35811 -0.59993,3.48788 -0.79761,4.73281 -0.19767,1.24494 -0.64885,4.02289 -1.00262,6.17323 -0.35377,2.15035 -0.91404,6.40988 -1.24503,9.46563 -0.331,3.05575 -1.14843,9.35244 -1.81651,13.99266 -0.66809,4.64021 -1.533,11.3073 -1.92204,14.81576 -0.38903,3.50845 -0.96273,7.76798 -1.27488,9.46562 -0.51687,2.81095 -0.89552,5.68525 -2.19577,16.66773 -0.47547,4.01601 -1.27555,9.20945 -2.21908,14.40421 -0.32889,1.81081 -0.72386,5.14436 -0.87771,7.40787 -0.31275,4.60161 -1.1415,11.60437 -2.06996,17.49083 -1.18299,7.50014 -1.82795,12.16949 -2.2454,16.25618 -0.23122,2.26352 -0.60093,5.13407 -0.82159,6.37901 -0.69646,3.92935 -1.96619,13.15316 -2.66268,19.34279 -0.36932,3.2821 -0.83883,6.89344 -1.04336,8.0252 -0.48101,2.66176 -1.49264,10.35101 -2.08458,15.84463 -0.51498,4.77932 -1.26757,9.36776 -2.47953,15.11724 -1.36333,6.46758 -0.97553,11.22189 0.91534,11.22189 1.3832,0 3.6478,-1.82677 6.81586,-5.4981 1.98067,-2.29531 7.7698,-8.50488 12.86473,-13.79904 5.09493,-5.29415 11.02643,-11.59085 13.18111,-13.99266 6.47353,-7.216 7.36582,-8.19191 13.57323,-14.8452 9.20605,-9.86732 14.95216,-16.09428 16.71077,-18.10917 0.88174,-1.01023 4.28851,-4.71611 7.57061,-8.2353 3.2821,-3.51919 6.87746,-7.41516 7.98969,-8.65772 1.11222,-1.24256 3.07341,-3.37038 4.3582,-4.72849 1.2848,-1.35811 3.2271,-3.48787 4.31625,-4.73281 1.08914,-1.24493 5.33204,-5.78627 9.42867,-10.09185 4.09663,-4.30559 10.04118,-10.6898 13.21011,-14.18714 3.16892,-3.49734 8.81743,-9.60655 12.55224,-13.57601 3.7348,-3.96946 7.7074,-8.23408 8.82799,-9.47692 11.82979,-13.12038 35.87003,-37.5313 43.23293,-43.89953 13.08048,-11.3134 29.96637,-23.64062 46.50502,-33.95008 7.67856,-4.78647 22.11185,-12.6154 27.77955,-15.06823 1.01858,-0.44081 4.1941,-1.84481 7.05671,-3.12 2.86261,-1.27519 5.32834,-2.31853 5.4794,-2.31853 0.15105,0 1.23506,-0.43375 2.4089,-0.9639 1.17385,-0.53015 3.52324,-1.48016 5.22088,-2.11113 1.69764,-0.63098 4.66079,-1.75149 6.58478,-2.49002 9.48726,-3.64172 19.64969,-6.89392 26.33913,-8.42909 2.15034,-0.49349 5.02089,-1.24294 6.37901,-1.66546 10.1081,-3.14472 22.68726,-5.18692 49.18008,-7.98428 8.45533,-0.89279 36.88342,-1.117502 39.16175,-0.30955 0.82776,0.29354 2.33352,1.41944 3.34612,2.502 3.03031,3.23964 3.40556,7.56841 1.00922,11.64201 -2.32915,3.95938 -9.30045,12.52793 -20.0588,24.65463 -1.924,2.1687 -4.79455,5.51917 -6.37901,7.44549 -3.48964,4.24255 -13.95431,16.43553 -18.50458,21.56074 -1.81913,2.04898 -4.88168,5.55898 -6.80568,7.79998 -1.92399,2.24101 -5.16949,5.93528 -7.21222,8.2095 -2.04273,2.27421 -4.24433,4.78312 -4.89244,5.57535 -0.64811,0.79223 -2.3325,2.7368 -3.74308,4.32126 -4.55508,5.11656 -9.79396,11.10356 -13.16645,15.04661 -1.81081,2.11718 -4.95969,5.70931 -6.99751,7.98251 -4.52559,5.04835 -8.97494,10.08721 -10.43443,11.81692 -0.59827,0.70903 -3.12492,3.541 -5.61479,6.29326 -2.48987,2.75226 -6.47161,7.19842 -8.8483,9.88037 -2.3767,2.68194 -6.38412,7.11543 -8.90539,9.8522 -2.52128,2.73677 -5.23733,5.76188 -6.03567,6.72246 -1.78351,2.14594 -5.30843,6.13514 -10.98652,12.43359 -2.37669,2.63635 -6.35843,7.08468 -8.8483,9.88516 -2.48987,2.80048 -6.19701,6.95791 -8.23808,9.23873 -2.04108,2.28082 -5.85997,6.64711 -8.48642,9.70286 -2.62646,3.05575 -6.51239,7.4184 -8.63542,9.69479 -2.12303,2.27638 -5.80462,6.34107 -8.18131,9.03265 -2.37669,2.69158 -6.08063,6.86028 -8.23098,9.26379 -2.15034,2.40352 -5.76168,6.48154 -8.0252,9.06228 -2.26352,2.58074 -6.06426,6.82797 -8.44609,9.43829 -4.22189,4.62688 -10.02518,11.14655 -11.7064,13.15146 -0.46008,0.54865 -2.59587,2.96567 -4.74621,5.37115 -2.15035,2.40548 -5.66909,6.38699 -7.81943,8.8478 -2.15034,2.46081 -5.66909,6.44415 -7.81943,8.85186 -2.15034,2.40772 -5.48389,6.20647 -7.40788,8.44169 -1.92399,2.23521 -5.07234,5.85766 -6.99633,8.04989 -1.92399,2.19223 -5.25754,5.99419 -7.40788,8.44882 -2.15034,2.45462 -5.58261,6.32158 -7.62726,8.59325 -3.30848,3.67583 -6.6041,7.46013 -9.66846,11.10213 -0.56001,0.66558 -2.59238,2.98115 -4.51637,5.14571 -5.73215,6.4489 -9.07597,10.2487 -10.22983,11.62483 -0.59827,0.71351 -2.56957,2.97865 -4.38066,5.03364 -1.8111,2.055 -4.95552,5.68093 -6.98761,8.05762 -2.03208,2.3767 -5.2728,6.08375 -7.20159,8.2379 -1.92879,2.15415 -4.98847,5.65546 -6.79928,7.78069 -1.81082,2.12523 -5.05176,5.82741 -7.20211,8.22707 -2.15034,2.39966 -5.39129,6.10268 -7.2021,8.22893 -1.81081,2.12626 -4.77397,5.56344 -6.58478,7.63819 -1.81082,2.07475 -4.58877,5.32326 -6.17323,7.21891 -1.58447,1.89565 -4.37519,5.1242 -6.20161,7.17456 -4.75014,5.33254 -10.32032,11.75843 -21.84174,25.19709 -1.7789,2.07492 -5.82712,6.73548 -8.99605,10.35681 -3.16893,3.62132 -7.98405,9.23033 -10.70027,12.46447 -2.71622,3.23413 -6.88315,8.0834 -9.25985,10.77614 -4.40767,4.99379 -7.26506,8.31198 -10.38809,12.06332 -0.96393,1.15786 -3.77459,4.3988 -6.24592,7.2021 -2.47133,2.8033 -5.52708,6.29361 -6.79056,7.75623 -1.26347,1.46263 -3.31755,3.77759 -4.56461,5.14436 -2.02548,2.21993 -7.68426,8.74176 -10.32444,11.89908 -0.54411,0.65069 -2.75019,3.15085 -4.90241,5.55591 -2.15221,2.40507 -5.29741,6.03962 -6.98932,8.07679 -5.31453,6.39901 -13.0308,14.81107 -15.93564,17.37258 -7.6124,6.71266 -14.65615,10.18594 -25.6344,12.64037 -8.17327,1.82731 -14.45721,2.20885 -23.86983,1.44929 z"
       id="path11" /><path
       style="fill:#a78bfa;fill-opacity:1"
       d="m 522.24766,672.43743 c -1.13176,-0.38708 -3.07681,-1.45728 -4.32234,-2.3782 -2.1089,-1.5593 -16.11795,-15.54816 -34.97894,-34.92855 -4.40571,-4.52704 -19.03331,-19.3503 -32.50577,-32.94057 -13.47246,-13.59027 -28.66231,-28.97129 -33.75523,-34.18004 -5.09291,-5.20876 -14.09011,-14.38245 -19.99376,-20.38599 -5.90365,-6.00354 -11.31132,-11.75477 -12.01704,-12.7805 -1.68243,-2.44533 -2.32589,-5.1042 -1.99693,-8.25155 0.41207,-3.94251 1.26971,-5.1233 14.45069,-19.89571 3.85264,-4.3178 8.94937,-10.05558 11.32607,-12.7506 2.37669,-2.69503 6.45102,-7.23 9.05407,-10.07771 2.60305,-2.84771 6.58478,-7.2839 8.8483,-9.8582 2.26352,-2.5743 6.33808,-7.09998 9.05458,-10.05707 6.82094,-7.42504 11.87331,-13.00382 13.24659,-14.62678 3.44834,-4.07528 13.97691,-15.53438 17.27009,-18.79645 4.94867,-4.90191 7.2532,-6.09687 11.21187,-5.81363 2.39135,0.1711 3.17555,0.43979 5.23476,1.79355 1.56921,1.03163 23.09437,22.24588 61.13092,60.24795 32.28989,32.26061 63.04072,62.93251 68.33519,68.15978 8.33163,8.22589 9.84403,9.91408 11.24514,12.55224 1.58486,2.98413 1.61903,3.13881 1.62812,7.36937 0.009,3.98002 -0.0799,4.47304 -1.12058,6.24328 -1.67584,2.85078 -7.60514,9.27035 -22.55235,24.41711 -7.37121,7.46961 -20.69282,21.08159 -29.60358,30.24884 -20.6918,21.28741 -31.34235,31.93657 -34.06459,34.06015 -3.08088,2.40336 -6.00579,3.39728 -9.89347,3.36193 -1.84339,-0.0168 -4.03674,-0.32391 -5.23181,-0.73265 z"
       id="path10" /><g
       id="g8"
       transform="translate(-195.79405,48.948512)" /></g></svg>
